<?xml version="1.0" standalone="no"?><!DOCTYPE svg PUBLIC "-//W3C//DTD SVG 1.1//EN" "http://www.w3.org/Graphics/SVG/1.1/DTD/svg11.dtd"><svg t="1591683359331" class="icon" viewBox="0 0 1287 1024" version="1.1" xmlns="http://www.w3.org/2000/svg" p-id="3220" xmlns:xlink="http://www.w3.org/1999/xlink" width="251.3671875" height="200"><defs><style type="text/css"></style></defs><path d="M745.589 654.16s-43.008-11.468-54.477-17.203c-22.908-14.336-37.244-43.008-37.244-71.68 0-31.51 25.805-57.314 43.008-77.385 42.979-51.58 65.916-120.364 65.916-197.778C762.792 129.609 648.104 0.644 507.67 0.644c-140.434 0-255.093 131.832-255.093 292.337 0 77.414 25.805 146.198 65.916 197.778 25.805 14.336 43.008 45.876 43.008 77.415 0 28.672-14.336 54.418-37.273 71.65v2.868c-2.868 0-5.735 2.867-5.735 2.867-14.336 8.601-28.672 14.336-45.846 14.336-108.924 37.244-200.645 94.588-255.122 166.239h2.896C6.085 846.204 0.351 869.142 0.351 892.05c0 68.784 57.344 126.099 128.966 126.099h756.706c74.548 0 131.862-54.419 131.862-126.099 0-28.672-11.469-54.447-25.805-77.385-54.447-71.68-140.434-126.098-246.491-160.505z m513.053 126.099c-48.713-60.182-123.23-111.763-217.82-140.435 0 0-37.273-8.601-48.742-14.336-20.07-14.336-31.51-37.273-31.51-63.049 0-28.672 22.909-51.61 37.245-65.945 37.273-45.846 60.182-106.057 60.182-174.841 0-140.434-100.294-257.96-226.45-257.96-20.042 0-40.083 2.867-57.286 8.601 43.008 63.05 65.916 137.567 65.916 220.687 0 88.883-31.539 174.87-86.016 246.52l-5.705 5.735v2.867c-5.734 5.735-14.336 14.336-17.203 22.909 0 2.867 0 2.867 2.867 2.867 5.735 2.867 14.336 5.734 22.938 5.734h2.867l11.469 5.735c117.497 37.273 217.82 103.19 283.765 186.31 28.672 37.273 45.846 80.251 45.846 126.127 0 25.804-5.735 45.846-14.336 68.783h83.12c65.945 0 117.525-48.713 117.525-111.762-2.867-31.54-11.469-54.477-28.672-74.547z" p-id="3221" ></path></svg>